# xmcd
#
# Track frame offsets:
#   150
#   20365
#   36587
#   52855
#   72922
#   89725
#   102630
#   117472
#   133125
#   148585
#   162135
#   178405
#   194547
#   207667
#   223090
#   238167
#
# Disc length: 3394 seconds
#
# Revision: 0
# Processed by: cddbd v1.5.1PL0 Copyright (c) Steve Scherf et al.
# Submitted via: uFREEDB ActiveX Control 1.5
#
DISCID=070d4010
DTITLE=lourenço and Lourival - Pérolas
DYEAR=2004
DGENRE=Country
TTITLE0=Os Três Boiadeiros
TTITLE1=O Telefone Chora
TTITLE2=Evolução da Minha Terra
TTITLE3=A Sementinha
TTITLE4=Canga do Tempo
TTITLE5=Lar Feliz
TTITLE6=Se Ainda Eziste Amor
TTITLE7=Terra Molhada
TTITLE8=Estradinha De Terra
TTITLE9=Sítio do Vovo
TTITLE10=Carta Anonima
TTITLE11=A Cruz Do Caminho
TTITLE12=O Menino Cassador
TTITLE13=Meu Reino Encantado
TTITLE14=Rainha do Paraná
TTITLE15=Magoa do Boiadeiro
EXTD=
EXTT0=
EXTT1=
EXTT2=
EXTT3=
EXTT4=
EXTT5=
EXTT6=
EXTT7=
EXTT8=
EXTT9=
EXTT10=
EXTT11=
EXTT12=
EXTT13=
EXTT14=
EXTT15=
PLAYORDER=
